<?xml version="1.0" encoding="UTF-8" standalone="no"?>
<svg
   xmlns:dc="http://purl.org/dc/elements/1.1/"
   xmlns:cc="http://creativecommons.org/ns#"
   xmlns:rdf="http://www.w3.org/1999/02/22-rdf-syntax-ns#"
   xmlns:svg="http://www.w3.org/2000/svg"
   xmlns="http://www.w3.org/2000/svg"
   xmlns:sodipodi="http://sodipodi.sourceforge.net/DTD/sodipodi-0.dtd"
   xmlns:inkscape="http://www.inkscape.org/namespaces/inkscape"
   enable-background="new 0 0 1771 2499.8"
   viewBox="0 0 1771 2499.8"
   version="1.1"
   id="svg16"
   sodipodi:docname="css.svg"
   inkscape:version="0.92.4 (unknown)">
  <metadata
     id="metadata22">
    <rdf:RDF>
      <cc:Work
         rdf:about="">
        <dc:format>image/svg+xml</dc:format>
        <dc:type
           rdf:resource="http://purl.org/dc/dcmitype/StillImage" />
      </cc:Work>
    </rdf:RDF>
  </metadata>
  <defs
     id="defs20" />
  <sodipodi:namedview
     pagecolor="#ffffff"
     bordercolor="#666666"
     borderopacity="1"
     objecttolerance="10"
     gridtolerance="10"
     guidetolerance="10"
     inkscape:pageopacity="0"
     inkscape:pageshadow="2"
     inkscape:window-width="885"
     inkscape:window-height="497"
     id="namedview18"
     showgrid="false"
     inkscape:zoom="0.094407551"
     inkscape:cx="885.5"
     inkscape:cy="1249.9"
     inkscape:window-x="0"
     inkscape:window-y="0"
     inkscape:window-maximized="0"
     inkscape:current-layer="svg16" />
  <path
     d="m1387.8 92.5h-146.9l152.8 165.9v78.9h-314.8v-92.4h152.8l-152.8-165.9v-79h309zm-371.4 0h-147.1l153 165.9v78.9h-314.9v-92.4h152.8l-152.8-165.9v-79h309zm-367.8 3.8h-158.5v144.8h158.5v96.3h-271.3v-337.4h271.3z"
     fill="#131313"
     id="path2" />
  <path
     d="m161.2 2299.1-161.2-1807.7h1771l-161.4 1807.4-725.2 201z"
     fill="#1572b6"
     id="path4" />
  <path
     d="m885.5 2346.2 586-162.5 137.8-1544.5h-723.8z"
     fill="#33a9dc"
     id="path6" />
  <path
     d="m885.5 1294.1h293.4l20.2-227h-313.6v-221.6h556l-5.3 59.5-54.5 611h-496.2z"
     fill="#fff"
     id="path8" />
  <path
     d="m886.7 1869.9h-1l-246.9-66.7-15.8-176.8h-222.4l31.1 348.1 454.2 126.4h1.3v-231z"
     fill="#ebebeb"
     id="path10" />
  <path
     d="m1160.1 1506.3-26.7 296.7-247.3 66.7v231l454.5-126 3.3-37.5 38.6-431h-222.4z"
     fill="#fff"
     id="path12" />
  <path
     d="m886.3 845.5v221.7h-535.4l-4.6-49.8-10.1-112.4-5.3-59.5zm-.8 448.6v221.7h-244.1l-4.3-49.8-10.1-112.4-5.3-59.5h263.7z"
     fill="#ebebeb"
     id="path14" />
  <path
     style="fill:#ffffff;fill-opacity:1;stroke-width:10.59237289"
     d="M 379.18457,166.30026 V 2.1184746 H 511.58923 643.99389 V 44.487967 86.857459 H 564.5511 485.1083 v 79.442801 79.4428 h 79.4428 79.44279 v 42.36949 42.36949 H 511.58923 379.18457 Z"
     id="path4532"
     inkscape:connector-curvature="0" />
  <path
     style="fill:#ffffff;fill-opacity:1;stroke-width:10.59237289"
     d="m 707.54813,288.11255 v -42.36949 h 80.35142 80.35142 L 788.06612,158.35598 C 722.84229,87.273729 707.85019,64.545785 707.7147,36.543687 L 707.54813,2.1184746 H 861.13754 1014.727 V 44.023919 85.929365 l -76.75774,3.11214 -76.7577,3.112141 76.7577,82.720044 c 64.38084,69.38185 76.75774,88.5965 76.75774,119.1642 v 36.44415 H 861.13754 707.54813 Z"
     id="path4534"
     inkscape:connector-curvature="0" />
  <path
     style="fill:#ffffff;fill-opacity:1;stroke-width:10.59237289"
     d="m 1088.8736,288.11255 v -42.36949 h 75.0056 75.0057 l -75.0057,-83.0675 C 1099.7435,91.646323 1088.8736,73.993106 1088.8736,40.863266 V 2.1184746 H 1237.1668 1385.46 V 44.023919 85.929365 l -76.0777,3.11214 -76.0778,3.112141 76.0778,81.986174 c 64.3528,69.35063 76.0777,87.71596 76.0777,119.1642 v 37.17802 h -148.2932 -148.2932 z"
     id="path4536"
     inkscape:connector-curvature="0" />
</svg>
