<?xml version="1.0" encoding="UTF-8" standalone="no"?>
<svg
   xmlns:dc="http://purl.org/dc/elements/1.1/"
   xmlns:cc="http://creativecommons.org/ns#"
   xmlns:rdf="http://www.w3.org/1999/02/22-rdf-syntax-ns#"
   xmlns:svg="http://www.w3.org/2000/svg"
   xmlns="http://www.w3.org/2000/svg"
   xmlns:sodipodi="http://sodipodi.sourceforge.net/DTD/sodipodi-0.dtd"
   xmlns:inkscape="http://www.inkscape.org/namespaces/inkscape"
   width="1773"
   height="2500"
   viewBox="0 0 256 361"
   preserveAspectRatio="xMinYMin meet"
   version="1.1"
   id="svg12"
   sodipodi:docname="html.svg"
   inkscape:version="0.92.4 (unknown)">
  <metadata
     id="metadata18">
    <rdf:RDF>
      <cc:Work
         rdf:about="">
        <dc:format>image/svg+xml</dc:format>
        <dc:type
           rdf:resource="http://purl.org/dc/dcmitype/StillImage" />
      </cc:Work>
    </rdf:RDF>
  </metadata>
  <defs
     id="defs16" />
  <sodipodi:namedview
     pagecolor="#ffffff"
     bordercolor="#666666"
     borderopacity="1"
     objecttolerance="10"
     gridtolerance="10"
     guidetolerance="10"
     inkscape:pageopacity="0"
     inkscape:pageshadow="2"
     inkscape:window-width="885"
     inkscape:window-height="497"
     id="namedview14"
     showgrid="false"
     inkscape:zoom="0.0944"
     inkscape:cx="886.5"
     inkscape:cy="1250"
     inkscape:window-x="0"
     inkscape:window-y="0"
     inkscape:window-maximized="0"
     inkscape:current-layer="svg12" />
  <path
     d="M255.555 70.766l-23.241 260.36-104.47 28.962-104.182-28.922L.445 70.766h255.11z"
     fill="#E44D26"
     id="path2" />
  <path
     d="M128 337.95l84.417-23.403 19.86-222.49H128V337.95z"
     fill="#F16529"
     id="path4" />
  <path
     d="M82.82 155.932H128v-31.937H47.917l.764 8.568 7.85 88.01H128v-31.937H85.739l-2.919-32.704zM90.018 236.542h-32.06l4.474 50.146 65.421 18.16.147-.04V271.58l-.14.037-35.568-9.604-2.274-25.471z"
     fill="#EBEBEB"
     id="path6" />
  <path
     d="M24.18 0h16.23v16.035h14.847V0h16.231v48.558h-16.23v-16.26H40.411v16.26h-16.23V0zM92.83 16.103H78.544V0h44.814v16.103h-14.295v32.455h-16.23V16.103h-.001zM130.47 0h16.923l10.41 17.062L168.203 0h16.93v48.558h-16.164V24.49l-11.166 17.265h-.28L146.35 24.49v24.068h-15.88V0zM193.21 0h16.235v32.508h22.824v16.05h-39.06V0z"
     id="path8" />
  <path
     d="M127.89 220.573h39.327l-3.708 41.42-35.62 9.614v33.226l65.473-18.145.48-5.396 7.506-84.08.779-8.576H127.89v31.937zM127.89 155.854v.078h77.143l.64-7.178 1.456-16.191.763-8.568H127.89v31.86z"
     fill="#FFF"
     id="path10" />
  <path
     style="fill:#ffffff;fill-opacity:1;stroke-width:10.59322071"
     d="M 168.27966,166.31356 V 2.1186441 h 52.9661 52.9661 V 60.381356 118.64407 h 58.26272 58.26271 V 60.381356 2.1186441 h 47.66949 47.66949 V 166.31356 330.50847 h -47.11589 -47.1159 l -3.2019,-55.6144 -3.2019,-55.61441 h -52.9661 -52.96611 l -3.2019,55.61441 -3.2019,55.6144 h -52.4125 -52.41251 z"
     id="path828"
     inkscape:connector-curvature="0"
     transform="scale(0.1444)" />
  <path
     style="fill:#ffffff;fill-opacity:1;stroke-width:10.59322071"
     d="M 644.97458,219.27966 V 108.05085 h -47.6695 -47.66949 V 55.084746 2.1186441 H 697.94068 846.24576 V 55.084746 108.05085 h -47.66949 -47.66949 v 111.22881 111.22881 h -52.9661 -52.9661 z"
     id="path830"
     inkscape:connector-curvature="0"
     transform="scale(0.1444)" />
  <path
     style="fill:#ffffff;fill-opacity:1;stroke-width:10.59322071"
     d="M 909.80508,165.75996 V 1.0114496 l 55.21606,3.2019021 c 54.36836,3.1527468 55.71006,4.0528538 87.39406,58.6307873 17.6979,30.485886 35.486,55.512361 39.5291,55.614411 4.043,0.10203 23.0328,-26.032703 42.1994,-58.077194 l 34.8485,-58.2627119 h 55.7878 55.7878 V 166.31356 330.50847 h -52.5205 -52.5205 l -3.0939,-82.09745 -3.0939,-82.09746 -38.8468,56.81788 -38.8468,56.81787 -35.3057,-53.97924 c -19.4182,-29.68858 -38.881,-54.06489 -43.2507,-54.16957 -4.3697,-0.10468 -7.9449,35.56179 -7.9449,79.25882 v 79.44915 h -47.66952 -47.6695 z"
     id="path832"
     inkscape:connector-curvature="0"
     transform="scale(0.1444)" />
  <path
     style="fill:#ffffff;fill-opacity:1;stroke-width:10.59322071"
     d="M 1344.1271,166.31356 V 2.1186441 h 52.9661 52.9661 V 118.64407 235.16949 h 74.1526 74.1525 v 47.66949 47.66949 h -127.1186 -127.1187 z"
     id="path834"
     inkscape:connector-curvature="0"
     transform="scale(0.1444)" />
</svg>
