<?xml version="1.0" encoding="UTF-8" standalone="no"?>
<svg
   xmlns:dc="http://purl.org/dc/elements/1.1/"
   xmlns:cc="http://creativecommons.org/ns#"
   xmlns:rdf="http://www.w3.org/1999/02/22-rdf-syntax-ns#"
   xmlns:svg="http://www.w3.org/2000/svg"
   xmlns="http://www.w3.org/2000/svg"
   xmlns:sodipodi="http://sodipodi.sourceforge.net/DTD/sodipodi-0.dtd"
   xmlns:inkscape="http://www.inkscape.org/namespaces/inkscape"
   enable-background="new 0 0 1776 2500"
   viewBox="0 0 1776 2500"
   version="1.1"
   id="svg12"
   sodipodi:docname="javascript-4.svg"
   inkscape:version="0.92.4 (unknown)">
  <metadata
     id="metadata18">
    <rdf:RDF>
      <cc:Work
         rdf:about="">
        <dc:format>image/svg+xml</dc:format>
        <dc:type
           rdf:resource="http://purl.org/dc/dcmitype/StillImage" />
      </cc:Work>
    </rdf:RDF>
  </metadata>
  <defs
     id="defs16" />
  <sodipodi:namedview
     pagecolor="#ffffff"
     bordercolor="#666666"
     borderopacity="1"
     objecttolerance="10"
     gridtolerance="10"
     guidetolerance="10"
     inkscape:pageopacity="0"
     inkscape:pageshadow="2"
     inkscape:window-width="1680"
     inkscape:window-height="978"
     id="namedview14"
     showgrid="false"
     inkscape:zoom="0.0944"
     inkscape:cx="888"
     inkscape:cy="1250"
     inkscape:window-x="0"
     inkscape:window-y="0"
     inkscape:window-maximized="1"
     inkscape:current-layer="svg12" />
  <path
     d="m1776 489.9h-1776l166.5 1805.5 721.4 204.6 721.4-204.6z"
     fill="#e6a329"
     id="path2" />
  <path
     d="m887.9 637v1710l584.5-165.6 142.2-1544.4z"
     fill="#f1bf22"
     id="path4" />
  <path
     d="m1352.9 858.5h-898.7l-62.6 676 1.3-4.2h763.5l-24.9 286-243.6 70.1-247.2-71.2-14.8-173.1h-224.4l32 345.9 454.4 129 454.6-129 62.6-678.9h-810.3l10.4-226.2h562.2l8.4 129.6h226.4z"
     fill="#fff"
     id="path6" />
  <path
     d="m888.1 858.5h-433.9l-62.6 676 1.3-4.2h495.2v-220.5h-261.7l10.4-226.2h251.3zm-261.7 783.6h-224.9l32 345.7 454.4 128.8v-230l-247.2-71.4z"
     fill="#ebebeb"
     id="path8" />
  <path
     d="m715.2 223.6h-158.1v113.5h271.2v-337.1h-113.1zm503.6-221.8h-275.6v118c36.8 36.8 56 54.5 110.2 107.8h-110.2v107.6h275.6v-107.4l-110.2-107.8h110.2z"
     fill="#231f20"
     id="path10" />
  <path
     style="fill:#ffffff;fill-opacity:1;stroke-width:10.59322071"
     d="m 561.72881,279.66102 v -52.9661 h 79.44916 79.44915 V 115.4661 4.2372881 h 52.9661 52.9661 V 168.4322 332.62712 H 694.14407 561.72881 Z"
     id="path828"
     inkscape:connector-curvature="0" />
  <path
     style="fill:#ffffff;fill-opacity:1;stroke-width:10.59322071"
     d="m 943.08475,284.95763 v -47.66949 h 51.20056 c 28.16029,0 54.40689,-3.20633 58.32569,-7.12516 3.9189,-3.91884 -19.1214,-30.51835 -51.2005,-59.11002 C 944.27329,120.12742 943.08475,117.89809 943.08475,61.652685 V 4.2372881 h 137.71185 137.7119 v 52.9661019 52.9661 h -52.9661 c -29.1314,0 -52.9661,3.75441 -52.9661,8.34314 0,4.58872 23.8347,31.81948 52.9661,60.51279 48.9193,48.1837 52.9661,56.04457 52.9661,102.88568 v 50.71602 H 1080.7966 943.08475 Z"
     id="path830"
     inkscape:connector-curvature="0" />
</svg>
